<svg fill="none" height="92" viewBox="0 0 92 92" width="92" xmlns="http://www.w3.org/2000/svg" xmlns:xlink="http://www.w3.org/1999/xlink"><radialGradient id="a" cx="30.6729" cy="68.8084" gradientUnits="userSpaceOnUse" r="50.3892"><stop offset="0" stop-color="#09f"/><stop offset=".6" stop-color="#a033ff"/><stop offset=".9" stop-color="#ff5280"/><stop offset="1" stop-color="#ff7061"/></radialGradient><path d="m45.9042 23c-12.9008 0-22.9042 9.4537-22.9042 22.2171 0 6.6765 2.737 12.4484 7.1919 16.4337.3722.3321.6012.8017.6127 1.3055l.126 4.077c.0091.3.0919.5931.2408.8536.149.2605.3597.4805.6136.6405s.5432.2552.8425.2773c.2993.022.5995-.0298.8741-.1509l4.5464-2.0042c.3837-.1717.8189-.2004 1.2254-.0916 2.09.5726 4.3117.8818 6.6308.8818 12.9008 0 22.9042-9.4537 22.9042-22.217 0-12.7634-10.0034-22.2228-22.9042-22.2228z" fill="url(#a)"/><path d="m32.1502 51.7161 6.7281-10.6733c.2531-.4019.5868-.7469.98-1.0133.3931-.2664.8372-.4483 1.3043-.5344.467-.0861.9468-.0745 1.4091.0342s.8971.3121 1.2768.5973l5.3539 4.014c.239.1789.5298.2751.8284.2741.2985-.001.5886-.0993.8264-.2799l7.2263-5.4855c.962-.733 2.2217.4237 1.5804 1.4487l-6.7339 10.6676c-.2531.4018-.5867.7468-.9799 1.0132s-.8373.4484-1.3043.5345c-.4671.0861-.9469.0744-1.4092-.0343s-.897-.312-1.2768-.5972l-5.3538-4.014c-.239-.1789-.5298-.2752-.8284-.2741-.2986.001-.5887.0992-.8264.2798l-7.2263 5.4856c-.962.7329-2.2217-.418-1.5747-1.443z" fill="#fff"/></svg>